<svg width="40" height="40" viewBox="0 0 40 40" fill="none" xmlns="http://www.w3.org/2000/svg">
<rect width="40" height="40" rx="20" fill="white" fill-opacity="0.1"/>
<g clip-path="url(#clip0_2005_98)">
<path d="M24.1667 11.667H15.8333C13.5321 11.667 11.6667 13.5325 11.6667 15.8337V24.167C11.6667 26.4682 13.5321 28.3337 15.8333 28.3337H24.1667C26.4678 28.3337 28.3333 26.4682 28.3333 24.167V15.8337C28.3333 13.5325 26.4678 11.667 24.1667 11.667Z" stroke="#F3EEE5" stroke-width="1.66543" stroke-linecap="round" stroke-linejoin="round"/>
<path d="M23.3333 19.4753C23.4362 20.1688 23.3177 20.8771 22.9948 21.4994C22.6719 22.1218 22.161 22.6264 21.5347 22.9416C20.9084 23.2569 20.1987 23.3666 19.5065 23.2552C18.8143 23.1438 18.1748 22.817 17.679 22.3212C17.1833 21.8255 16.8565 21.186 16.7451 20.4938C16.6337 19.8015 16.7434 19.0918 17.0586 18.4656C17.3738 17.8393 17.8785 17.3284 18.5008 17.0055C19.1232 16.6825 19.8315 16.5641 20.525 16.6669C21.2324 16.7718 21.8874 17.1015 22.3931 17.6072C22.8988 18.1129 23.2284 18.7678 23.3333 19.4753Z" stroke="#F3EEE5" stroke-width="1.66543" stroke-linecap="round" stroke-linejoin="round"/>
<path d="M24.5833 15.417H24.5917" stroke="#F3EEE5" stroke-width="1.66543" stroke-linecap="round" stroke-linejoin="round"/>
</g>
<defs>
<clipPath id="clip0_2005_98">
<rect width="20" height="20" fill="white" transform="translate(10 10)"/>
</clipPath>
</defs>
</svg>
